<?xml version="1.0" encoding="UTF-8" standalone="no"?>
<!-- Created with Fritzing (http://www.fritzing.org/) -->

<svg
   width="0.4in"
   x="0in"
   version="1.2"
   y="0in"
   height="0.6in"
   viewBox="0 0 28.8 43.2"
   id="svg6787"
   sodipodi:docname="SO08_breadboard.svg"
   inkscape:version="1.2.2 (732a01da63, 2022-12-09)"
   xmlns:inkscape="http://www.inkscape.org/namespaces/inkscape"
   xmlns:sodipodi="http://sodipodi.sourceforge.net/DTD/sodipodi-0.dtd"
   xmlns="http://www.w3.org/2000/svg"
   xmlns:svg="http://www.w3.org/2000/svg">
  <defs
     id="defs6791" />
  <sodipodi:namedview
     id="namedview6789"
     pagecolor="#ffffff"
     bordercolor="#000000"
     borderopacity="0.25"
     inkscape:showpageshadow="2"
     inkscape:pageopacity="0.0"
     inkscape:pagecheckerboard="0"
     inkscape:deskcolor="#d1d1d1"
     inkscape:document-units="in"
     showgrid="false"
     inkscape:zoom="6.9965275"
     inkscape:cx="17.93747"
     inkscape:cy="35.017371"
     inkscape:window-width="1920"
     inkscape:window-height="1009"
     inkscape:window-x="1358"
     inkscape:window-y="-8"
     inkscape:window-maximized="1"
     inkscape:current-layer="svg6787" />
  <desc
     id="desc6596">Fritzing breadboard generated by brd2svg</desc>
  <path
     fill="#1f7a34"
     stroke="none"
     stroke-width="0"
     d="M 7.9861039,-0.69677422 V 18.743226 a 2.7107196,2.16 0 0 1 0,4.32 v 19.44 H 44.129031 V -0.69677422 Z"
     id="path6598" />
  <rect
     width="0.86560792"
     x="11.181774"
     y="23.849195"
     fill="#8c8c8c"
     height="3.132"
     stroke="none"
     stroke-width="0"
     id="rect6600" />
  <rect
     width="0.86560792"
     x="12.985124"
     y="23.849195"
     fill="#8c8c8c"
     height="3.132"
     stroke="none"
     stroke-width="0"
     id="rect6602" />
  <rect
     width="0.86560792"
     x="14.788473"
     y="23.849195"
     fill="#8c8c8c"
     height="3.132"
     stroke="none"
     stroke-width="0"
     id="rect6604" />
  <rect
     width="0.86560792"
     x="16.591824"
     y="23.849195"
     fill="#8c8c8c"
     height="3.132"
     stroke="none"
     stroke-width="0"
     id="rect6606" />
  <rect
     width="0.86560792"
     x="16.591824"
     y="16.433195"
     fill="#8c8c8c"
     height="3.132"
     stroke="none"
     stroke-width="0"
     id="rect6608" />
  <rect
     width="0.86560792"
     x="14.788473"
     y="16.433195"
     fill="#8c8c8c"
     height="3.132"
     stroke="none"
     stroke-width="0"
     id="rect6610" />
  <rect
     width="0.86560792"
     x="12.985124"
     y="16.433195"
     fill="#8c8c8c"
     height="3.132"
     stroke="none"
     stroke-width="0"
     id="rect6612" />
  <rect
     width="0.86560792"
     x="11.181774"
     y="16.433195"
     fill="#8c8c8c"
     height="3.132"
     stroke="none"
     stroke-width="0"
     id="rect6614" />
  <rect
     width="6.7078605"
     x="10.965656"
     y="19.15176"
     fill="#303030"
     height="5.1108999"
     stroke="none"
     stroke-width="0"
     id="rect6616" />
  <polygon
     fill="#1f1f1f"
     points="13.6074,5.43713 12.8874,6.15713 0.936569,6.15713 0.216567,5.43713 "
     stroke-width="0"
     id="polygon6618"
     transform="matrix(0.5009305,0,0,0.5,10.857171,16.433196)" />
  <polygon
     fill="#1f1f1f"
     points="13.6074,15.6588 12.8874,14.9388 0.936569,14.9388 0.216567,15.6588 "
     stroke-width="0"
     id="polygon6620"
     transform="matrix(0.5009305,0,0,0.5,10.857171,16.433196)" />
  <polygon
     fill="#000000"
     points="0.216567,15.6588 0.936569,14.9388 0.936569,6.15713 0.216567,5.43713 "
     stroke-width="0"
     id="polygon6622"
     transform="matrix(0.5009305,0,0,0.5,10.857171,16.433196)" />
  <polygon
     fill="#3d3d3d"
     points="13.6074,15.6588 12.8874,14.9388 12.8874,6.15713 13.6074,5.43713 "
     stroke-width="0"
     id="polygon6624"
     transform="matrix(0.5009305,0,0,0.5,10.857171,16.433196)" />
  <ellipse
     fill="#1f1f1f"
     cx="12.047668"
     cy="23.182596"
     stroke="none"
     stroke-width="0"
     id="circle6626"
     rx="0.36066997"
     ry="0.36000001" />
  <text
     x="3.4962518"
     y="23.484016"
     font-family="OCRA"
     fill="#ffffff"
     text-anchor="start"
     stroke="none"
     id="label"
     stroke-width="0"
     font-size="4.68435px"
     transform="scale(1.0009301,0.9990708)">SO08</text>
  <text
     x="-38.018124"
     y="4.4691558"
     font-family="OCRA"
     fill="#ffffff"
     text-anchor="start"
     stroke="none"
     stroke-width="0"
     font-size="3.24301px"
     id="text6633"
     transform="matrix(0,-0.9990708,1.0009301,0,0,0)">1</text>
  <text
     x="-5.4366479"
     y="4.4691558"
     font-family="OCRA"
     fill="#ffffff"
     text-anchor="end"
     stroke="none"
     stroke-width="0"
     font-size="3.24301px"
     id="text6639"
     transform="matrix(0,-0.9990708,1.0009301,0,0,0)">8</text>
  <text
     x="-38.018124"
     y="11.675853"
     font-family="OCRA"
     fill="#ffffff"
     text-anchor="start"
     stroke="none"
     stroke-width="0"
     font-size="3.24301px"
     id="text6645"
     transform="matrix(0,-0.9990708,1.0009301,0,0,0)">2</text>
  <text
     x="-5.4366479"
     y="11.675853"
     font-family="OCRA"
     fill="#ffffff"
     text-anchor="end"
     stroke="none"
     stroke-width="0"
     font-size="3.24301px"
     id="text6651"
     transform="matrix(0,-0.9990708,1.0009301,0,0,0)">7</text>
  <text
     x="-38.018124"
     y="18.882549"
     font-family="OCRA"
     fill="#ffffff"
     text-anchor="start"
     stroke="none"
     stroke-width="0"
     font-size="3.24301px"
     id="text6657"
     transform="matrix(0,-0.9990708,1.0009301,0,0,0)">3</text>
  <text
     x="-5.4366479"
     y="18.882549"
     font-family="OCRA"
     fill="#ffffff"
     text-anchor="end"
     stroke="none"
     stroke-width="0"
     font-size="3.24301px"
     id="text6663"
     transform="matrix(0,-0.9990708,1.0009301,0,0,0)">6</text>
  <text
     x="-38.018124"
     y="26.089245"
     font-family="OCRA"
     fill="#ffffff"
     text-anchor="start"
     stroke="none"
     stroke-width="0"
     font-size="3.24301px"
     id="text6669"
     transform="matrix(0,-0.9990708,1.0009301,0,0,0)">4</text>
  <text
     x="-5.4366479"
     y="26.089245"
     font-family="OCRA"
     fill="#ffffff"
     text-anchor="end"
     stroke="none"
     stroke-width="0"
     font-size="3.24301px"
     id="text6675"
     transform="matrix(0,-0.9990708,1.0009301,0,0,0)">5</text>
  <g
     id="connector0pin"
     stroke-width="0"
     transform="matrix(1.001861,0,0,1,2.3478844,38.558796)">
    <rect
       width="2.29896"
       x="0"
       y="0"
       fill="#8d8c8c"
       height="2.2967999"
       stroke-width="0"
       id="rect6682" />
    <rect
       width="1.18398"
       x="0.56098998"
       y="0.556952"
       fill="#8c8663"
       height="1.18189"
       stroke-width="0"
       id="rect6684" />
    <polygon
       fill="#b8af82"
       points="0,0 0,2.2968 0.56099,1.73785 0.56099,0.501957 "
       stroke-width="0"
       id="polygon6686" />
    <polygon
       fill="#80795b"
       points="2.29896,0 1.74297,0.558951 0.56899,0.558951 0,0 "
       stroke-width="0"
       id="polygon6688" />
    <polygon
       fill="#5e5b43"
       points="2.29896,2.2968 1.74297,1.73785 1.74297,0.558951 2.29896,0 "
       stroke-width="0"
       id="polygon6690" />
    <polygon
       fill="#9a916c"
       points="2.29896,2.2968 0,2.2968 0.56699,1.73785 1.74297,1.73785 "
       stroke-width="0"
       id="polygon6692" />
  </g>
  <g
     id="connector7pin"
     stroke-width="0"
     transform="matrix(1.001861,0,0,1,2.3478844,2.558796)">
    <rect
       width="2.29896"
       x="0"
       y="0"
       fill="#8d8c8c"
       height="2.2967999"
       stroke-width="0"
       id="rect6695" />
    <rect
       width="1.18398"
       x="0.56098998"
       y="0.556952"
       fill="#8c8663"
       height="1.18189"
       stroke-width="0"
       id="rect6697" />
    <polygon
       fill="#b8af82"
       points="0,0 0,2.2968 0.56099,1.73785 0.56099,0.501957 "
       stroke-width="0"
       id="polygon6699" />
    <polygon
       fill="#80795b"
       points="2.29896,0 1.74297,0.558951 0.56899,0.558951 0,0 "
       stroke-width="0"
       id="polygon6701" />
    <polygon
       fill="#5e5b43"
       points="2.29896,2.2968 1.74297,1.73785 1.74297,0.558951 2.29896,0 "
       stroke-width="0"
       id="polygon6703" />
    <polygon
       fill="#9a916c"
       points="2.29896,2.2968 0,2.2968 0.56699,1.73785 1.74297,1.73785 "
       stroke-width="0"
       id="polygon6705" />
  </g>
  <g
     id="connector1pin"
     stroke-width="0"
     transform="matrix(1.001861,0,0,1,9.5612836,38.558796)">
    <rect
       width="2.29896"
       x="0"
       y="0"
       fill="#8d8c8c"
       height="2.2967999"
       stroke-width="0"
       id="rect6708" />
    <rect
       width="1.18398"
       x="0.56098998"
       y="0.556952"
       fill="#8c8663"
       height="1.18189"
       stroke-width="0"
       id="rect6710" />
    <polygon
       fill="#b8af82"
       points="0,0 0,2.2968 0.56099,1.73785 0.56099,0.501957 "
       stroke-width="0"
       id="polygon6712" />
    <polygon
       fill="#80795b"
       points="2.29896,0 1.74297,0.558951 0.56899,0.558951 0,0 "
       stroke-width="0"
       id="polygon6714" />
    <polygon
       fill="#5e5b43"
       points="2.29896,2.2968 1.74297,1.73785 1.74297,0.558951 2.29896,0 "
       stroke-width="0"
       id="polygon6716" />
    <polygon
       fill="#9a916c"
       points="2.29896,2.2968 0,2.2968 0.56699,1.73785 1.74297,1.73785 "
       stroke-width="0"
       id="polygon6718" />
  </g>
  <g
     id="connector6pin"
     stroke-width="0"
     transform="matrix(1.001861,0,0,1,9.5612836,2.558796)">
    <rect
       width="2.29896"
       x="0"
       y="0"
       fill="#8d8c8c"
       height="2.2967999"
       stroke-width="0"
       id="rect6721" />
    <rect
       width="1.18398"
       x="0.56098998"
       y="0.556952"
       fill="#8c8663"
       height="1.18189"
       stroke-width="0"
       id="rect6723" />
    <polygon
       fill="#b8af82"
       points="0,0 0,2.2968 0.56099,1.73785 0.56099,0.501957 "
       stroke-width="0"
       id="polygon6725" />
    <polygon
       fill="#80795b"
       points="2.29896,0 1.74297,0.558951 0.56899,0.558951 0,0 "
       stroke-width="0"
       id="polygon6727" />
    <polygon
       fill="#5e5b43"
       points="2.29896,2.2968 1.74297,1.73785 1.74297,0.558951 2.29896,0 "
       stroke-width="0"
       id="polygon6729" />
    <polygon
       fill="#9a916c"
       points="2.29896,2.2968 0,2.2968 0.56699,1.73785 1.74297,1.73785 "
       stroke-width="0"
       id="polygon6731" />
  </g>
  <g
     id="connector2pin"
     stroke-width="0"
     transform="matrix(1.001861,0,0,1,16.774663,38.558796)">
    <rect
       width="2.29896"
       x="0"
       y="0"
       fill="#8d8c8c"
       height="2.2967999"
       stroke-width="0"
       id="rect6734" />
    <rect
       width="1.18398"
       x="0.56098998"
       y="0.556952"
       fill="#8c8663"
       height="1.18189"
       stroke-width="0"
       id="rect6736" />
    <polygon
       fill="#b8af82"
       points="0,0 0,2.2968 0.56099,1.73785 0.56099,0.501957 "
       stroke-width="0"
       id="polygon6738" />
    <polygon
       fill="#80795b"
       points="2.29896,0 1.74297,0.558951 0.56899,0.558951 0,0 "
       stroke-width="0"
       id="polygon6740" />
    <polygon
       fill="#5e5b43"
       points="2.29896,2.2968 1.74297,1.73785 1.74297,0.558951 2.29896,0 "
       stroke-width="0"
       id="polygon6742" />
    <polygon
       fill="#9a916c"
       points="2.29896,2.2968 0,2.2968 0.56699,1.73785 1.74297,1.73785 "
       stroke-width="0"
       id="polygon6744" />
  </g>
  <g
     id="connector5pin"
     stroke-width="0"
     transform="matrix(1.001861,0,0,1,16.774663,2.558796)">
    <rect
       width="2.29896"
       x="0"
       y="0"
       fill="#8d8c8c"
       height="2.2967999"
       stroke-width="0"
       id="rect6747" />
    <rect
       width="1.18398"
       x="0.56098998"
       y="0.556952"
       fill="#8c8663"
       height="1.18189"
       stroke-width="0"
       id="rect6749" />
    <polygon
       fill="#b8af82"
       points="0,0 0,2.2968 0.56099,1.73785 0.56099,0.501957 "
       stroke-width="0"
       id="polygon6751" />
    <polygon
       fill="#80795b"
       points="2.29896,0 1.74297,0.558951 0.56899,0.558951 0,0 "
       stroke-width="0"
       id="polygon6753" />
    <polygon
       fill="#5e5b43"
       points="2.29896,2.2968 1.74297,1.73785 1.74297,0.558951 2.29896,0 "
       stroke-width="0"
       id="polygon6755" />
    <polygon
       fill="#9a916c"
       points="2.29896,2.2968 0,2.2968 0.56699,1.73785 1.74297,1.73785 "
       stroke-width="0"
       id="polygon6757" />
  </g>
  <g
     id="connector3pin"
     stroke-width="0"
     transform="matrix(1.001861,0,0,1,23.988062,38.558796)">
    <rect
       width="2.29896"
       x="0"
       y="0"
       fill="#8d8c8c"
       height="2.2967999"
       stroke-width="0"
       id="rect6760" />
    <rect
       width="1.18398"
       x="0.56098998"
       y="0.556952"
       fill="#8c8663"
       height="1.18189"
       stroke-width="0"
       id="rect6762" />
    <polygon
       fill="#b8af82"
       points="0,0 0,2.2968 0.56099,1.73785 0.56099,0.501957 "
       stroke-width="0"
       id="polygon6764" />
    <polygon
       fill="#80795b"
       points="2.29896,0 1.74297,0.558951 0.56899,0.558951 0,0 "
       stroke-width="0"
       id="polygon6766" />
    <polygon
       fill="#5e5b43"
       points="2.29896,2.2968 1.74297,1.73785 1.74297,0.558951 2.29896,0 "
       stroke-width="0"
       id="polygon6768" />
    <polygon
       fill="#9a916c"
       points="2.29896,2.2968 0,2.2968 0.56699,1.73785 1.74297,1.73785 "
       stroke-width="0"
       id="polygon6770" />
  </g>
  <g
     id="connector4pin"
     stroke-width="0"
     transform="matrix(1.001861,0,0,1,23.988062,2.558796)">
    <rect
       width="2.29896"
       x="0"
       y="0"
       fill="#8d8c8c"
       height="2.2967999"
       stroke-width="0"
       id="rect6773" />
    <rect
       width="1.18398"
       x="0.56098998"
       y="0.556952"
       fill="#8c8663"
       height="1.18189"
       stroke-width="0"
       id="rect6775" />
    <polygon
       fill="#b8af82"
       points="0,0 0,2.2968 0.56099,1.73785 0.56099,0.501957 "
       stroke-width="0"
       id="polygon6777" />
    <polygon
       fill="#80795b"
       points="2.29896,0 1.74297,0.558951 0.56899,0.558951 0,0 "
       stroke-width="0"
       id="polygon6779" />
    <polygon
       fill="#5e5b43"
       points="2.29896,2.2968 1.74297,1.73785 1.74297,0.558951 2.29896,0 "
       stroke-width="0"
       id="polygon6781" />
    <polygon
       fill="#9a916c"
       points="2.29896,2.2968 0,2.2968 0.56699,1.73785 1.74297,1.73785 "
       stroke-width="0"
       id="polygon6783" />
  </g>
  <g
     id="g7616"
     stroke-width="0"
     transform="matrix(1.001861,0,0,1,23.988062,2.558796)"
     style="display:inline">
    <rect
       width="2.29896"
       x="0"
       y="0"
       fill="#8d8c8c"
       height="2.2967999"
       stroke-width="0"
       id="rect7604" />
    <rect
       width="1.18398"
       x="0.56098998"
       y="0.556952"
       fill="#8c8663"
       height="1.18189"
       stroke-width="0"
       id="rect7606" />
    <polygon
       fill="#b8af82"
       points="0,0 0,2.2968 0.56099,1.73785 0.56099,0.501957 "
       stroke-width="0"
       id="polygon7608" />
    <polygon
       fill="#80795b"
       points="2.29896,0 1.74297,0.558951 0.56899,0.558951 0,0 "
       stroke-width="0"
       id="polygon7610" />
    <polygon
       fill="#5e5b43"
       points="2.29896,2.2968 1.74297,1.73785 1.74297,0.558951 2.29896,0 "
       stroke-width="0"
       id="polygon7612" />
    <polygon
       fill="#9a916c"
       points="2.29896,2.2968 0,2.2968 0.56699,1.73785 1.74297,1.73785 "
       stroke-width="0"
       id="polygon7614" />
  </g>
</svg>
